<svg xmlns:svg="http://www.w3.org/2000/svg" xmlns="http://www.w3.org/2000/svg" width="259.29411764706" height="130" id="svgCaptcha" version="1.1" style="border:solid 2px #000">
  <title>SVGCaptcha</title>
  <g>
    <path style="fill:none;stroke:#000000;stroke-width:2px;stroke-linecap:round;stroke-linejoin:miter;stroke-opacity:1" d="M 207.466193 13.12426M 207.466193 13.12426 L 207.4863 12.79949 M 17.8431 20.0000 L 17.84314 24.4607843 M 186.01611 94.9645 C 179.836279 91.80661 180.451235 89.4818279 179.2661 86.5132 M 181.42120 21.262601 L 187.9585 19.10697 M 149.4375 65.98995 C 144.7465 69.82920 142.91419 75.00460 142.855835 80.3036 M 152.721638 26.87143 L 152.42103 26.9282612 M 204.002144 45.0951 L 204.002 45.09510 M 149.072861 79.04346 C 152.730139 68.440055 158.0245 62.26639 167.1853 59.9662622 M 335.636 139.84738 L 328.5927 142.825286 M 83.45489 112.4154 L 83.3646 114.7113 M 142.8558 80.30360 C 142.78705 86.54921 145.182680 92.9665 148.2667 97.5699 M 207.40658 14.0493 L 207.4662 13.12426 M 155.253516 26.5693512 L 154.9241 26.5902901 M 138.680539 48.9127 C 138.9581 51.01945 139.250275 52.4650 139.250275 52.4650283 M 103.206102 94.5432571 L 126.826571 55.4981 M 29.95098 49.31373 C 31.726 47.5385154 28.224790 49.870654 30.9510 24.46078 M 59.264706 54.4118 L 59.264706 86.274510 M 198.131 59.1925 L 197.777 59.70404 M 207.063 18.88950 L 207.190 17.17343 M 150.405731 27.4129278 L 150.130 27.492017 M 205.3124 36.8763 L 205.59755 34.538220 M 204.875 40.071420 L 205.2702 37.2046884 M 204.354099 43.279900 L 204.690 41.2819 M 207.48630 12.7995 C 209.865 12.157332 213.13542 11.2293231 213.6960 10.8786 M 201.7439 45.126598 C 201.744 45.1265976 200.6900 54.65787 198.4659 58.6811 M 167.18531 59.966262 L 167.18531 59.9662622 M 151.2510 27.18873 L 150.966305 27.26107 M 106.486 61.799492 L 112.6960 59.878611 M 86.280544 65.915314 L 73.49589 69.8700698 M 329.18401 124.5867 L 335.63613 139.84738 M 101.48064 91.7641527 L 80.421 70.262601 M 206.554 25.0948 L 206.743996 22.88495 M 126.827 55.4981 C 126.643137 55.7816615 129.35686 54.936075 135.04388 52.0239007 M 186.01611 94.9645249 C 179.83628 91.8066 180.45124 89.4818 179.26611 86.513192 M 36.961 90.09804 L 36.96078 86.274510 M 71.3725 90.098039 L 71.372549 86.2745 M 213.0934 8.9304740 L 199.943 12.99822 M 199.943 12.99822 L 200.546 14.946360 M 145.39504 57.2347 C 145.3950 57.2347 142.234798 43.137007 144.261826 38.90792 M 36.961 86.2745 L 29.9510 86.2745 M 154.276612 26.6477 L 153.9585 26.6836470 M 196.1568 61.6401 C 195.4457 62.34515 194.652537 62.944344 193.7689 63.3359 M 29.950980 24.460784 L 36.960784 24.46078 M 204.002144 45.095097 L 204.002 45.095097 M 207.1900 17.1734300 L 207.295319 15.6915 M 71.3725 86.27451 L 65.000000 86.27451 M 164.261457 53.53319 C 161.724 60.855277 154.548711 62.674533 149.437453 65.9899545 M 207.4741 12.9976 L 207.48630 12.79949 M 150.684561 27.33588 L 150.4057 27.412928 M 167.18531 59.9663 C 169.5846 64.2445556 171.71460 70.855290 172.37318 77.5793 M 207.486304 12.799492 C 207.84884 12.7917505 210.15116 11.87075 213.6960 10.8786112 M 175.211517 23.1834827 L 179.473067 21.86523 M 51.617647 86.27451 L 51.6176 90.098039 M 179.29401 101.322611 C 179.7555 101.4780 180.2649 101.5452516 180.834726 101.50347 M 139.8882 34.2573971 C 137.5905 37.3095 138.10405 44.5371 138.6805 48.9127 M 206.5537 25.0948 L 206.795 22.275883 M 36.96078 20.0000000 L 17.8431 20.0000000 M 213.6960 10.878611 L 213.0934 8.9304740 M 184.364635 65.71133 C 184.364635 65.71133 191.159 66.54446 194.00630 65.3970 M 206.1136 29.7653 L 206.343348 27.3999 M 151.538797 27.1190686 L 151.25103 27.18873 M 174.443839 95.075600 C 175.8977 97.622764 177.00846 100.55314 179.294010 101.3226110 M 104.2946 62.47745 L 101.48064 91.76415 M 105.59273 119.82529 L 71.84314 40.0000 M 159.437677 104.787111 C 167.3835 104.597147 171.979 100.9076842 174.4438 95.0756 M 139.250 52.46503 C 141.398101 53.8018 145.395042 57.23470 145.395 57.23470 M 199.9434 12.998223 L 200.546 14.9464 M 174.496 20.87007 L 175.212 23.183483 M 159.438 104.787111 C 167.383 104.5971466 171.97881 100.9076842 174.4438 95.07560 M 71.37255 24.46078 L 71.3725 20.0000000 M 165.85678 98.799165 C 155.318 106.9953375 146.451011 86.5250 149.072861 79.0435 M 152.4210 26.9282612 L 152.123732 26.98862 M 51.6176 24.4607843 L 59.2647 24.460784 M 135.04388 52.0239 L 118.333 81.2289883 M 199.68608 60.0380 C 202.322 55.6206 202.922889 50.231692 204.0021 45.0950967 M 171.894 74.0449 C 173.49999 83.362144 172.607 93.6804436 165.8568 98.7991650 M 71.37255 86.2745 L 65.000000 86.27451 M 197.0081 60.70537 L 196.59304 61.18387 M 206.279657 28.071056 L 206.5537 25.0948 M 205.598 34.538220 L 205.86478 32.15630 M 207.43788 13.568811 L 207.474 12.9976 M 205.9737 31.13066 L 206.280 28.0711 M 150.96631 27.2610726 L 150.6846 27.335875 M 184.45489 63.41545 C 184.42846 65.7751512 184.428459 65.775151 184.3646 65.7113274 M 193.769 63.335872 C 191.081 64.5674274 184.454893 63.41545 184.4549 63.415446 M 160.5310 34.142077 C 167.26707 39.529312 166.5382 47.0923 164.261457 53.53319 M 9.6361 138.847381 C 5.7269 140.1116 6.7269 140.2350302 2.593 141.8253 M 205.295 13.47745 L 202.4806 42.76415 M 145.1769 56.2029 C 144.498 52.87609 142.567231 42.443437 144.26183 38.907917 M 36.960784 20.000000 C 23.4552 19.5448179 25.455 20.455182 17.8431 20.0000000 M 204.452 42.7261711 L 204.875 40.0714 M 179.266 86.5131922 L 169.3064 31.027305 M 179.473 21.86523 L 201.74393 45.1265976 M 29.951 54.4117647 C 55.4137 54.9980392 51.5863 53.8254902 59.265 54.41176 M 115.12638 86.7360 L 106.1840 101.586665 M 29.9510 54.41176 C 32.714969 53.696796 54.7150 55.1267336 59.264706 54.411765 M 103.0021 94.09510 C 105.161 83.821906 106.486 61.799492 106.4863 61.7995 M 153.958472 26.683647 L 153.64397 26.7242360 M 207.378 14.4783434 L 207.43788 13.568811 M 144.26183 38.9079173 C 146.61386 32.710557 152.0264 30.369204 160.531044 34.142077 M 152.12373 26.98862 L 151.830 27.052293 M 206.91383 20.80492 L 207.062672 18.88950 M 126.826571 55.49812 C 127.75888 54.7609 134.2411 52.22412 135.0439 52.023901 M 150.129747 27.49202 L 149.8565 27.5729300 M 207.0015 19.68801 L 207.173149 17.40506 M 106.1840 101.586665 L 112.636135 116.8474 M 98.943436 61.998223 L 99.5461 63.946360 M 36.961 24.4607843 L 36.9608 20.0000000 M 206.79463 22.2758831 L 207.00149 19.6880 M 197.402511 60.21021 L 197.0081 60.7054 M 153.026 26.8183408 L 152.7216 26.8714305 M 154.59845 26.6164611 L 154.276612 26.6476510 M 154.896580 98.9799514 L 146.679 102.4542 M 338.12638 109.735962 L 329.184 124.5867 M 73.495894 69.87007 L 74.211517 72.18348 M 51.61765 24.460784 L 59.26471 24.4608 M 149.58606 27.655454 C 145.690 28.86071 142.3760 31.0864699 139.88824 34.2574 M 187.280544 16.91531 C 185.5818 17.03893 182.582 19.13062 174.496 20.870070 M 112.636135 116.847381 L 105.59273 119.8252861 M 194.00630 65.3970020 C 196.36614 64.4002 198.22758 62.22347 199.686 60.037982 M 43.679 124.4542 L 12.1264 108.7359621 M 149.85655 27.572930 L 149.5861 27.655454 M 164.261457 53.5332 C 161.7237 60.8552774 154.54871 62.674533 149.4375 65.9899545 M 80.421204 70.2626013 L 86.958503 68.1070 M 204.0021 45.095097 L 204.354 43.27990 M 146.679 102.454174 C 138.533 99.1650629 133.4673 98.16875 115.126381 86.73596 M 184.36464 65.7113 C 184.36464 65.711327 191.159421 66.54446 194.00630 65.397002 M 74.212 72.18348 L 78.473 70.865231 M 86.95850 68.106968 L 86.280544 65.915314 M 196.593040 61.183874 L 196.1568 61.64012 M 151.82968 27.0523 L 151.539 27.119069 M 149.58606 27.65545 L 149.5861 27.655454 M 98.94344 61.998223 L 99.546065 63.9463599 M 207.295319 15.691464 L 207.3781 14.47834 M 59.2647 86.2745098 L 51.617647 86.2745098 M 86.2805 65.91531 L 73.495894 69.87007 M 106.184 101.5867 L 112.636135 116.847381 M 205.8648 32.1562997 L 206.114 29.765268 M 71.372549 20.0000000 C 70.4014 19.4013666 53.5986 19.4013666 51.61765 20.00000 M 17.8431 24.4607843 L 24.8529 24.4608 M 71.843 40.0000000 L 78.88654 37.022095 M 202.480641 42.764153 L 181.42120 21.26260 M 205.637 34.1998206 L 205.97369 31.1307 M 197.776623 59.704038 L 197.402511 60.2102136 M 59.26471 24.460784 L 59.264706 49.31373 M 167.18531 59.96626 C 169.161470 63.4901244 170.95501 68.596354 171.894 74.0449000 M 153.3330 26.76920 L 153.0256 26.8183408 M 205.009713 39.135750 L 205.3124 36.8762851 M 148.266706 97.569936 C 150.90677 102.22306 154.5183 104.841348 159.4377 104.7871 M 17.8431 86.2745 C 17.7398 86.3778 18.103339 86.7709 18.8431 90.09804 M 51.617647 90.0980 L 71.3725 90.098039 M 153.6440 26.724236 L 153.33304 26.769205 M 24.85294 24.4608 L 24.85294 86.274510 M 204.002 45.0951 L 204.45175 42.7261711 M 187.281 16.915314 C 177.371732 19.72373 182.371732 18.177046 174.4959 20.8701 M 36.961 90.0980 L 36.960784 86.27451 M 17.84314 90.0980392 L 36.960784 90.0980 M 24.8529 86.2745098 L 17.843137 86.2745098 M 187.95850 19.1070 L 187.2805 16.91531 M 198.465894 58.681106 L 198.1309 59.192462 M 204.69012 41.2819 L 205.009713 39.1357496 M 59.264706 49.313725 L 29.9510 49.313725 M 328.5927 142.8253 L 294.843137 63.0000000 M 145.395042 57.2347050 C 145.39504 57.2347050 145.310044 56.855533 145.1769 56.2029000 M 65.000000 86.274510 C 58.8186 92.4559 59.8186 18.279412 66.000 24.4608 M 118.3330 81.2290 L 154.89658 98.97995 M 65.000000 24.460784 L 71.37255 24.4608 M 198.4659 58.681106 L 198.466 58.6811065 M 205.2702 37.2046884 L 205.63684 34.1998206 M 207.173 17.4050600 L 207.309 15.5009 M 154.92407 26.5903 L 154.598 26.6165 M 154.897 98.97995 L 146.679 102.45417 M 155.253516 26.5693512 L 155.25352 26.569351 M 51.618 20.0000000 C 51.708683 19.9089636 51.90896 21.6146 52.618 24.4607843 M 180.83473 101.5034664 C 186.0064 100.970961 192.23360 98.244200 186.01611 94.9645 M 207.309 15.50089 L 207.40658 14.04934 M 29.951 49.3137255 L 29.9510 24.46078 M 172.373 77.5793 C 173.184651 85.86431 171.7622 94.321298 165.8568 98.79917 M 78.886545 37.02210 L 103.206 94.5432571 M 29.950980 86.2745 L 29.9510 54.4118 M 24.853 86.274510 L 17.843137 86.27451 M 3.18401 123.5866647 L 9.63613 138.8473812 M 206.343348 27.3998691 L 206.553665 25.0948 M 202.481 42.7641527 L 181.4212 21.262601 M 51.61765 86.2745098 L 51.61765 90.0980 M 206.743996 22.8849491 L 206.913834 20.80492 M 200.54607 14.946360 L 205.2946 13.4775 M 169.306 31.0273 C 168.738860 27.467407 161.915 26.109573 155.254 26.569351 M 71.373 24.4608 L 71.37255 20.0000 " id="captcha"></path>
  </g>
</svg>
