<svg xmlns:svg="http://www.w3.org/2000/svg" xmlns="http://www.w3.org/2000/svg" width="281.74444444444" height="130" id="svgCaptcha" version="1.1" style="border:solid 2px #000">
  <title>SVGCaptcha</title>
  <g>
    <path style="fill:none;stroke:#000000;stroke-width:2px;stroke-linecap:round;stroke-linejoin:miter;stroke-opacity:1" d="M 203.16257 36.342155M 203.16257 36.342155 L 202.116 34.172023 M 95.1250 66.203125 L 94.031 61.457031 M 203.278 40.8667 L 192.8778 40.8666667 M 67.888889 62.5444 L 66.152212 63.000514 M 204.000000 41.000000 L 203.79064 38.618147 M 246.13363 35.0095500 L 245.06771 35.0322314 M 134.12432 38.6217045 C 131.715845 36.78176 127.01538 33.35769 122.744444 31.2222 M 24.266667 26.5778 Q 23.167 26.300895 17.6222 26.000000 M 53.125000 32.4531 L 46.7812 31.92578 M 245.8040 41.7257586 L 246.122 41.8418318 M 74.3889 83.48889 C 82.911111 88.255556 90.422 86.0888889 90.711111 82.04444 M 232.3444 36.58889 C 227.7222 38.466667 224.544 41.93333 222.5222 46.5556 M 225.3589 57.924976 L 225.354260 56.2013282 M 61.9762 58.08111 L 60.835378 58.904444 M 135.744 39.8888889 C 135.74444 39.88889 135.137 39.395319 134.12432 38.62170 M 212.411111 63.8888889 Q 214.490 63.3791 221.078 63.8888889 M 119.15767 33.3023 L 120.000 33.6777778 M 114.673 31.5856 L 115.627523 31.90184 M 127.9491 37.9034 L 128.476000 38.201778 M 94.03125 61.457031 L 92.50000 57.0625000 M 246.122309 41.841832 L 246.401 41.94720 M 241.00000 27.00000 Q 243.1681 28.0170 214.000 97.0000 M 244.196 41.20655 L 244.64187 41.33938 M 135.744444 39.8889 C 135.744 39.8888889 128.811111 34.255556 122.744 31.2222222 M 78.281250 40.3633 L 74.125 38.078125 M 231.189 121.6667 L 234.07778 117.3333333 M 242.129118 35.1492195 L 240.409 35.257851 M 120.0000 33.6777778 L 120.00000 33.6778 M 96.00000 76.7500 L 96.0000 76.7500 M 59.800000 68.611111 L 24.266667 26.57778 M 128.974 38.4848889 L 129.437977 38.749973 M 65.446238 70.1055531 L 65.4854 70.2509066 M 128.522222 74.555556 L 121.3000 74.55556 M 61.250 27.0000000 L 71.75000 89.0000000 M 82.3000 24.00000 L 70.744 24.000000 M 238.45578 40.472767 L 238.981 40.436584 M 242.731003 40.83249 L 243.23762 40.950501 M 65.7478 71.1282 L 65.929841 71.67982 M 96.000000 76.7500 L 95.7812 71.3007812 M 130.5849 39.4093333 L 130.8705 39.574578 M 71.4686 81.23997 L 72.138 81.87489 M 60.835378 58.9044 L 60.069 60.117778 M 124.424761 35.948213 L 125.033 36.2799 M 140.078 74.55556 L 132.855556 74.555556 M 117.25000 34.0000000 Q 117.250000 101.0000 139.75000 101.0000000 M 64.5000 34.5625 L 59.0312 33.3320 M 60.06896 60.1178 L 59.613 61.59111 M 59.464600 66.271111 L 59.608 67.48444 M 65.43333 70.0556 L 65.433 70.055556 M 131.411111 39.888889 L 166.0778 74.5556 M 66.099 72.16445 L 66.311 72.735802 M 203.27778 40.866667 L 192.87778 40.8666667 M 183.06427 21.9451796 L 178.668 20.621928 M 144.411111 78.88889 Q 144.15321 78.6310 140.07778 74.55556 M 68.500 77.322175 L 69.06741 78.233477 M 128.476000 38.2018 L 128.974 38.484889 M 72.67564 64.014026 C 70.8304 63.1353 69.09529 62.5444444 67.8889 62.5444444 M 17.62222 26.000000 C 18.922 27.877778 19.789 28.8888889 20.511111 29.75556 M 130.870 39.5745778 L 131.100 39.70793 M 150.405 15.59357 L 143.495747 14.905482 M 237.94268 40.5399552 L 238.456 40.47277 M 75.400 89.26667 L 77.04105 89.4111 M 65.4333 70.05556 L 65.446238 70.1055531 M 106.475049 29.94056 L 107.853 30.1028 M 225.4111 117.3333 Q 227.192593 119.114815 226.4111 63.888889 M 72.137869 81.87489 L 72.84723 82.465992 M 136.16824 14.3233 L 128.422 13.84688 M 65.91858 71.64670 L 66.09943 72.1645 M 241.67961 40.6295 L 242.211 40.7246222 M 85.189 26.8889 L 82.300000 24.0000000 M 212.41111 117.333333 Q 212.5605 117.4828 213.41111 121.6667 M 187.042 23.3742911 L 183.064 21.945180 M 65.0749 68.044033 L 65.304 69.47912 M 69.17819 78.401235 L 69.6941 79.14186 M 111.5354 30.74516 L 112.6333 31.0055556 M 125.639111 36.6128889 L 126.23810 36.944533 M 126.2381 36.9445333 L 126.82573 37.2720 M 227.544 27.00000 Q 220.72958 26.42264 213.67778 28.7333333 M 67.1086 74.6466639 L 67.5221 75.5163335 M 214.00000 97.0000000 L 232.00000 85.500000 M 123.8183 35.620729 L 124.42476 35.948213 M 115.627523 31.90184 L 116.54688 32.2333 M 247.07778 42.2222 L 247.078 35.00000 M 246.96289 42.173005 L 247.04851 42.2094834 M 126.826 37.27202 L 127.397543 37.59257 M 203.790643 38.61815 L 203.16257 36.342155 M 67.8889 62.5444444 L 67.888889 62.5444444 M 86.558 89.7000 L 92.027160 89.2666667 M 66.427 73.0360047 L 66.7438 73.815743 M 70.3640 80.0106634 L 71.095954 80.8516778 M 72.8472 82.46599 L 73.5973 83.0063103 M 78.86667 67.7444444 C 75.54444 65.288889 70.488889 62.5444444 67.888889 62.5444 M 121.300000 78.88889 Q 136.14403 79.7449 144.411111 78.8889 M 205.0111 47.800000 Q 234.935 70.1838 265.6778 94.60000 M 222.522222 46.5556 C 220.644 50.60000 221.078 59.555556 221.07778 59.555556 M 117.437 32.578364 L 118.30560 32.93524 M 158.8556 74.55556 L 163.189 78.88889 M 75.077778 28.333333 Q 77.799 28.1327 82.300000 28.33333 M 71.095954 80.851678 C 72.0534 81.88286 73.1474 82.7991667 74.388889 83.48889 M 130.248 39.214969 L 130.5849 39.4093333 M 66.743829 73.815743 L 67.108566 74.646664 M 246.8290 35.001194 L 246.133626 35.0096 M 239.5158 40.42880 L 240.056 40.446808 M 212.411111 117.3333 Q 212.55090 117.473118 213.411111 121.6666667 M 129.86419 38.994258 L 130.247975 39.214969 M 234.07778 59.555556 L 225.411111 59.5555556 M 193.7415 26.5501 L 190.6011 24.909263 M 128.4220 13.846881 L 120.257 13.476371 M 74.1250 38.0781250 L 69.53125 36.1445312 M 243.707480 35.076400 L 242.1291 35.149219 M 134.5000 67.00000 L 241.000 27.0000000 M 89.66667 31.22222 C 89.6667 31.222222 92.9889 29.48889 101.80000 29.6333 M 156.89461 16.38752 L 150.404537 15.59357 M 232.000 85.5000000 Q 232.00000 38.0000 135.25000 38.00000 M 154.74444 28.7333333 L 137.4111 27.000000 M 90.71111 82.044444 C 91.1444 78.8666667 85.07778 72.366667 78.86667 67.7444444 M 178.668 20.6219282 L 173.852552 19.4045 M 120.970297 34.14277 L 121.5005 34.40786 M 225.411 59.5556 C 225.411111 59.5556 224.97778 51.7556 226.42222 48.144444 M 63.55556 57.7777778 L 63.55556 57.7778 M 265.677778 94.6000000 L 276.078 94.600000 M 65.510310 70.3403 L 65.608379 70.6776 M 238.622731 35.409458 L 236.847074 35.61120 M 234.0778 63.8889 L 234.0778 59.5555556 M 68.699 77.651584 L 69.17819 78.4012 M 66.1522 63.0005144 L 65.262 64.36337 M 77.041049 89.411111 L 81.1617 89.65185 M 65.552 70.484657 L 65.64532 70.7998457 M 212.4111 121.6666667 L 231.189 121.66667 M 67.13383 74.701883 L 67.474 75.4180556 M 128.522222 74.5556 Q 123.620 74.1754 121.30000 74.555556 M 59.613 61.59111 L 59.40278 63.19444 M 226.000000 122.00000 Q 226.000 41.000000 204.000 41.00000 M 67.986 76.4123 L 68.500253 77.322175 M 170.411 74.555556 Q 143.066 47.210229 135.744444 39.8889 M 146.00000 28.0000000 Q 105.60976 24.17319 61.25000 27.00000 M 63.55556 57.7778 L 61.97620 58.08111 M 163.1889 78.888889 L 181.967 78.88889 M 96.364506 88.0630 L 98.3667 85.800000 M 69.531250 36.1445312 L 64.5000 34.5625000 M 81.1617 89.6518519 L 86.558333 89.700000 M 68.255433 76.8998650 L 68.6988 77.6515842 M 110.376953 30.506771 L 111.535400 30.7452 M 245.449 41.601587 L 245.8040 41.725759 M 85.281 45.988281 L 82.000000 43.0000000 M 247.077778 35.0000 L 246.82904 35.00119 M 225.911 49.91357 L 226.422222 48.1444444 M 225.590 51.9859086 L 225.911403 49.913573 M 235.15802 35.8702479 L 233.63175 36.19376 M 192.87778 40.86667 L 215.4111 77.2666667 M 163.18889 78.88889 Q 174.5529 79.3359788 181.966667 78.8889 M 73.5973 83.0063103 L 74.38889 83.4888889 M 237.44521 40.640757 L 237.943 40.539955 M 102.67108 13.05293 L 93.25000 13.000000 M 40.000000 31.7500000 Q 40.000 74.00000 92.500000 74.000000 M 247.07778 35.00000 L 247.07778 35.0000000 M 234.077778 117.33333 Q 229.667 118.000000 225.411 117.333333 M 225.41111 59.5555556 L 225.411 59.5556 M 120.00000 33.677778 L 120.469 33.8984889 M 82.300 28.333333 L 128.522222 74.5555556 M 88.1250 49.3281 L 85.28125 45.988281 M 166.0778 74.5555556 Q 166.200617 74.354938 158.85556 74.555556 M 111.6734 13.2117202 L 102.67108 13.0529301 M 246.63567 42.0392562 L 246.824184 42.1154 M 205.0111 47.8000 L 265.67778 94.6000 M 116.5469 32.2333333 L 117.4375 32.5784 M 245.06771 35.0322314 L 243.707480 35.07640 M 65.930 71.67982 L 66.15570 72.3198858 M 225.391 59.1129576 L 225.359 57.92498 M 225.411111 59.5556 L 225.39132 59.1130 M 215.411 77.26667 Q 195.90024 61.238015 154.74444 28.73333 M 113.677 31.2862630 L 114.673047 31.585590 M 122.6289 34.98933 L 123.2182 35.300178 M 132.85556 74.555556 L 89.66667 31.2222 M 240.409 35.2579 L 238.62273 35.4095 M 121.500512 34.40786 L 122.054855 34.6909689 M 65.433333 70.0556 L 65.433333 70.0556 M 225.411 63.88889 L 234.0778 63.8889 M 243.7271 41.076059 L 244.196321 41.2066 M 221.07778 63.888889 L 221.0778 117.3333 M 65.485 70.2509066 L 65.551541 70.4846571 M 64.981944 66.1916667 L 65.07490 68.0440329 M 240.0562 40.4468082 L 240.5992 40.48800 M 92.500000 74.0000 L 55.000 46.000000 M 243.23762 40.9505 L 243.727 41.0761 M 241.141384 40.549773 L 241.6796 40.6295 M 226.42222 48.144444 C 227.722222 44.8222222 233.500000 41.9333333 236.966667 40.77778 M 127.398 37.5926 L 127.949113 37.90341 M 212.4111 59.55556 L 212.411111 63.888889 M 190.601 24.90926 L 187.04206 23.3742911 M 118.3056 32.9352 L 119.158 33.302279 M 65.4524 70.1288165 L 65.51031 70.3403 M 276.0778 94.60000 L 227.54444 27.00000 M 99.63333 25.444444 C 88.9444 24.7222 85.189 26.8889 85.18889 26.88889 M 240.59916 40.4880 L 241.141384 40.5497728 M 59.741 68.307778 L 59.8000 68.61111 M 244.641867 41.3394 L 245.0605 41.4719246 M 168.619 18.2930057 L 162.966 17.2873 M 246.824 42.1154 L 246.963 42.1730 M 59.402778 63.1944 L 59.374756 64.7977778 M 66.827 74.0115 L 67.13383 74.70188 M 176.00000 60.0000 Q 176.0000 76.750000 96.000000 76.7500 M 246.40062 41.947200 L 246.635671 42.0393 M 247.077778 42.2222 Q 247.0778 42.2222222 248.078 42.2222 M 66.3107 72.7358 L 66.55306 73.3538 M 221.07778 117.333333 Q 213.45614 117.7895 212.411111 117.33333 M 234.07778 63.888889 L 234.0778 59.5555556 M 66.553060 73.35380 L 66.827 74.011478 M 69.067415 78.2334767 L 69.688 79.13378 M 131.3751 39.8678578 L 131.411111 39.88889 M 245.0605 41.471925 L 245.44898 41.60159 M 105.011068 29.8071 L 106.4750 29.9405599 M 109.152 30.2921 L 110.37695 30.506771 M 70.74444 24.0000000 Q 70.854089 24.1096 75.0778 28.3333 M 59.03125 33.3320 L 53.125 32.4531250 M 120.4686 33.8985 L 120.97030 34.14277 M 67.473611 75.41806 L 67.8473 76.15304 M 65.645 70.7998457 L 65.76743 71.1895134 M 121.300000 74.555556 L 121.300 78.8888889 M 202.1158 34.1720 L 200.650284 32.10775 M 212.411111 63.8889 L 221.0778 63.88889 M 181.966667 78.8888889 L 170.41111 74.5555556 M 227.54444 94.6000 Q 229.52000 94.0800 237.9444 94.600000 M 135.250000 38.0000 L 134.500000 67.0000 M 242.21058 40.7246 L 242.73100 40.83249 M 101.800 29.6333333 L 103.454834 29.7041 M 65.304270 69.479115 L 65.433 70.055556 M 92.02716 89.2666667 L 96.365 88.0630 M 75.400000 89.2667 L 75.400000 89.266667 M 85.222 67.4556 C 78.8667 62.6889 68.9000 57.922222 63.55556 57.7777778 M 65.262140 64.3633745 L 64.9819 66.1916667 M 139.750 101.0000000 L 226.00000 122.000000 M 221.078 59.5556 Q 219.234 59.3213213 212.411111 59.55556 M 95.781250 71.3008 L 95.12500 66.2031250 M 131.270 39.80661 L 131.3751 39.867858 M 65.433 70.0555556 L 65.433333 70.055556 M 125.033184 36.2799 L 125.6391 36.6129 M 46.781 31.9257812 L 40.000000 31.7500000 M 238.981253 40.4365838 L 239.515822 40.4288 M 196.463 28.296786 L 193.741493 26.5500945 M 65.7674 71.189513 L 65.91858 71.646701 M 101.8000 29.633333 L 101.800000 29.63333 M 123.21818 35.3001778 L 123.818279 35.62073 M 173.85255 19.404537 L 168.618620 18.2930 M 237.9444 94.6000000 Q 212.2659 58.83956 205.01111 47.800000 M 69.6941 79.1418572 L 70.2474 79.8664931 M 103.455 29.70414 L 105.01107 29.807118 M 55.000 46.0000000 Q 55.000000 60.0000000 176.00000 60.0000000 M 20.5111 29.75556 C 55.03333 69.62222 75.4000 89.2667 75.40000 89.2666667 M 67.84725 76.1530 L 68.255433 76.89986 M 66.1557 72.3198858 L 66.42662 73.0360047 M 122.744444 31.222222 C 114.077778 26.88889 110.17778 26.166667 99.633333 25.44444 M 200.650 32.10775 L 198.7661 30.14934 M 122.055 34.69097 L 122.62889 34.9893 M 204.00000 41.00000 L 204.0000 41.000000 M 198.7661 30.1493 L 196.463138 28.296786 M 131.411111 39.8888889 L 166.077778 74.55556 M 131.100 39.7079 L 131.2700 39.8066133 M 67.5221 75.51633 L 67.985545 76.41232 M 69.688264 79.1338 L 70.3640 80.0106634 M 65.60838 70.677598 L 65.747812 71.1282 M 253.544444 77.2667 Q 221.7588 53.907035 203.27778 40.8667 M 144.4111 78.8889 Q 140.8696 75.60817 140.07778 74.555556 M 234.078 117.33333 L 225.411 117.333333 M 225.418 54.1517331 L 225.590087 51.98591 M 227.544444 27.000000 Q 226.46582 27.658875 213.677778 28.7333333 M 137.411 27.000000 L 227.544444 94.60000 M 245.000 37.00000 L 146.000000 28.000000 M 70.247396 79.8665 L 70.83864 80.568183 M 154.744 28.73333 Q 147.2742 27.3330645 137.4111 27.00000 M 247.049 42.209483 L 247.0778 42.222222 M 92.500 57.062500 L 90.531250 53.0195312 M 143.496 14.9054820 L 136.168 14.323251 M 225.3543 56.201328 L 225.4178 54.1517 M 129.43798 38.74997 L 129.864192 38.9943 M 98.36667 85.800000 C 99.089 81.6111 93.1667 73.52222 85.222222 67.45556 M 93.250000 13.0000 Q 93.250 34.0000000 117.250000 34.00000 M 85.189 26.888889 L 82.3000 24.000000 M 82.000000 43.00000 L 78.281 40.3633 M 90.531250 53.0195 L 88.125000 49.328125 M 71.7500 89.00000 Q 111.306798 74.1131159 245.0000 37.0000 M 59.375 64.79778 L 59.464600 66.2711111 M 236.966667 40.7778 L 237.445215 40.6408 M 65.433333 70.05556 L 65.452 70.1288 M 78.867 67.74444 C 77.086 66.4282667 74.807 65.0291 72.67564 64.01403 M 236.966667 40.77778 L 236.966667 40.7778 M 162.96597 17.2873 L 156.895 16.3875236 M 98.3667 85.8000000 C 99.088889 81.611111 93.1667 73.522222 85.222 67.4556 M 59.608 67.484444 L 59.7414 68.307778 M 112.633 31.00556 L 113.6771 31.286263 M 107.8531 30.1027778 L 109.152 30.292079 M 236.847074 35.6112029 L 235.15802 35.87025 M 120.257089 13.47637 L 111.673 13.2117202 M 213.6778 28.7333 L 253.544444 77.2666667 M 233.632 36.1938 L 232.34444 36.5888889 M 70.838642 80.568183 L 71.46857 81.2400 " id="captcha"></path>
  </g>
</svg>
