<svg xmlns:svg="http://www.w3.org/2000/svg" xmlns="http://www.w3.org/2000/svg" width="273.12745098039" height="130" id="svgCaptcha" version="1.1" style="border:solid 2px #000">
  <title>SVGCaptcha</title>
  <g>
    <path style="fill:none;stroke:#000000;stroke-width:2px;stroke-linecap:round;stroke-linejoin:miter;stroke-opacity:1" d="M 33.16275 67.1887868M 33.16275 67.1887868 L 32.19013 66.824058 M 72.000 66.5000 L 81.000000 2.00000 M 37.2922 72.2000 L 36.33627 70.2428 M 105.73529 73.0686 L 98.7255 73.06863 M 37.2922 72.2000 L 37.292157 72.20000 M 208.732435 121.15686 C 202.650910 121.80777 204.650910 120.5059524 199.619690 121.15686 M 14.642044 95.30146 L 16.5261 95.3961 M 94.5093 48.01235 L 59.250000 47.0000000 M 131.5686 94.91176 L 118.95098 104.08824 M 73.490196 24.0000000 C 72.0654 24.9346 70.06536 23.065359 62.27451 24.000000 M 106.226548 31.5412 L 106.1309 31.4313337 M 31.175 66.6941176 C 26.7392 66.3882 20.6216 74.6471 20.62157 74.647059 M 125.62037 51.049383 L 94.5093 48.012346 M 107.89448 34.0353926 C 107.3112 32.9443348 106.59498 31.8695 105.7353 31.00980 M 176.200000 116.76000 L 174.26250 111.660000 M 105.936 31.2168557 L 105.8362 31.11237 M 107.450 33.25312 L 106.998 32.5506489 M 109.9412 39.421569 L 109.94118 39.42157 M 15.88039 88.8705882 C 19.857 93.91765 30.10392 91.62353 34.6922 87.34118 M 253.467729 121.15686 L 243.5266 121.1569 M 237.915 40.79902 L 235.657 35.00000 M 106.034 31.3232028 L 105.93577 31.21686 M 69.2843 73.0686 L 62.2745 73.0686 M 10.83333 94.988235 L 11.102374 95.017600 M 109.79477 38.8594 L 109.6791 38.45713 M 271.144 126.127451 L 269.2079 121.15686 M 190.9216 35.000000 L 166.0686 35.00000 M 177.750000 129.0000000 L 177.3625 122.54000 M 23.0686 28.6118 C 22.537716 27.97227 18.4623 27.68656 16.64510 28.00000 M 73.630392 31.0098039 C 73.63039 31.0098 78.537 29.3275 86.9490 29.46765 M 62.2745 73.06863 L 58.069 77.27451 M 73.4902 26.8039 L 73.490196 24.0000000 M 36.3363 70.242831 L 35.6791 69.31533 M 31.63333 61.647059 C 28.77486 61.6470588 25.40153 63.9185 22.53761 66.43985 M 44.327 71.8941176 L 43.71186 70.3848941 M 233.0000 98.000000 C 233.00000 98.000000 205.500000 98.0000000 150.500 98.00000 M 35.347833 93.3340 L 37.2393 92.430243 M 196.64872 73.1078431 L 184.067068 40.799020 M 118.9510 97.205882 C 130.1444 89.336365 149.14437 75.57774 152.215686 73.117647 M 109.941 73.0686 L 109.941176 39.4216 M 34.692 87.3412 C 38.516 83.976471 38.9745 77.0941176 37.2922 72.2000 M 15.7275 31.97647 C 12.42836 56.5859294 11.313 73.917765 10.9556 84.0932016 M 212.234 40.7990 L 222.1749 40.79902 M 98.725 73.06863 L 98.72549 77.2745098 M 199.2296 79.735294 C 229.77771 80.513005 237.77771 78.9576 237.337 79.73529 M 30.885 94.5934 L 33.2092 94.0486 M 152.5833 56.11111 L 125.620 51.0493827 M 109.941176 39.421569 L 109.9251 39.3548 M 38.82157 91.31765 C 44.0216 86.8823529 46.315686 78.317647 44.32745 71.8941176 M 33.281 61.83487 L 31.63333 61.6470588 M 152.21569 119.000000 L 131.569 94.9118 M 199.229568 79.7353 C 222.314064 81.0494 214.31406 78.4212306 237.33741 79.735294 M 146.362500 95.3400000 L 139.000 95.000000 M 105.6399 39.2884 C 105.701934 39.37456 105.7353 39.4216 105.735294 39.4215686 M 108.2342 34.7018940 L 107.8618 33.9745591 M 88.912 25.40196 C 79.238 24.700980 73.49020 26.80392 73.490 26.803922 M 10.95560 84.093202 C 10.70036 91.3713 10.833333 94.9882 10.833 94.9882353 M 23.423179 95.40587 L 25.930463 95.2525176 M 16.5261 95.3960784 L 18.65903 95.458071 M 160.24510 119.00000 C 157.1825 118.81751 153.81751 118.8175 152.215686 119.000000 M 229.63079 40.7990196 C 235.756 40.5554 230.7563 41.0427 237.9151 40.7990196 M 152.2157 73.11765 C 157.3309 72.4485 154.66912 73.7867647 160.245 73.11765 M 18.659 95.4580706 L 20.97870 95.4679 M 37.2922 72.2000000 L 37.292157 72.2000000 M 51.50000 114.0000 C 48.7232 107.9435 51.277 70.0565188 48.500000 64.000000 M 109.87657 39.16302 L 109.794775 38.859449 M 212.234 40.799020 C 215.24853 40.5504902 219.75147 40.5504902 222.17491 40.7990 M 201.55533 126.1275 C 203.6213 125.5061275 225.3787 125.5061 226.4083 126.1275 M 62.275 24.00000 L 62.275 28.20588 M 177.36250 122.540000 L 176.2000 116.76000 M 235.6569 35.0000 L 209.9755 35.0000000 M 245.46219 126.1274510 L 271.14356 126.12745 M 86.94902 29.4676471 C 95.500980 29.748039 98.305 31.43039 100.688235 33.39314 M 69.284 28.2058824 L 69.284314 73.0686275 M 80.500000 77.2745 L 80.5000 73.0686275 M 109.92514 39.3548 L 109.8766 39.163017 M 34.906275 62.2870 L 33.281275 61.83487 M 136.15686 91.470588 L 160.245 119.0000000 M 193.180 40.7990 C 193.4149 40.7521518 191.585 37.3544585 190.922 35.00000 M 237.91511 40.799020 L 235.65686 35.0000000 M 152.216 73.117647 L 160.245098 73.11765 M 109.6791 38.45713 L 109.5288 37.969133 M 36.485 62.9739765 L 34.9063 62.2869647 M 243.527 121.15686 L 245.4622 126.1274510 M 37.292157 72.2000 L 36.879 71.216935 M 166.0686 35.000000 L 168.326872 40.7990196 M 98.72549 77.2745 L 116.951 77.274510 M 215.359886 121.156863 L 199.230 79.73529 M 73.4902 26.80392 L 73.4902 24.00000 M 118.95098 119.0000 C 117.215 118.78493 117.215074 119.2151 112.06863 119.000000 M 105.735 39.421569 L 105.735 73.0686275 M 80.500000 77.2745 L 80.50000 73.068627 M 81.00000 2.0000000 C 81.0000 86.666667 113.250 129.00000 177.750 129.0000000 M 139.0000 95.000000 L 72.0000 66.5000 M 184.067 40.79902 C 185.240605 41.5584 188.2406 40.0396242 193.180 40.7990 M 20.6216 74.647059 L 20.621569 74.6470588 M 58.069 77.274510 C 78.2745 79.0000 60.7255 79.000000 80.50000 77.2745 M 177.439617 40.7990196 C 204.2112 101.65725 198.788824 103.511667 208.732435 121.15686 M 35.679 69.3153 L 34.9216 68.4720588 M 20.978703 95.46786 L 23.423179 95.40587 M 59.250 47.00000 L 159.000 39.0000000 M 269.208 121.1568627 L 260.924 121.156863 M 16.6451 28.000000 C 16.03333 29.9882 15.880392 31.0588 15.727 31.976471 M 86.2500 122.0000000 L 174.000000 49.0000 M 108.863 36.1219 L 108.5678 35.422041 M 20.621569 74.64706 C 20.62157 74.6471 12.821569 85.0470588 15.8804 88.8705882 M 225.000 97.5000000 Q 225.000 129.0000000 227.25000 129.0000 M 20.622 74.647059 C 20.622 74.6471 12.8216 85.047059 15.88039 88.87059 M 208.583333 83.444444 L 194.06481 72.308642 M 160.2451 73.1176471 C 140.355676 88.424903 151.6443 79.5172074 136.157 91.470588 M 11.868167 95.0926 L 13.0687 95.1938 M 11.10237 95.01760 L 11.8682 95.0926 M 42.88980 68.905035 L 41.88422 67.4839 M 106.99816 32.5506 L 106.5055 31.880235 M 226.40827 126.127451 L 224.472631 121.156863 M 33.162745 67.188787 L 31.174510 66.6941176 M 237.337 79.735294 L 253.468 121.1569 M 152.950 96.36000 L 146.362500 95.3400000 M 218.954 96.604938 L 208.58333 83.4444 M 199.2500 58.000000 C 166.5211 76.4977 161.521106 76.2629 146.000000 87.0000000 M 13.068722 95.1938 L 14.642044 95.3015 M 150.5000 98.0000000 C 157.05360 103.5596 159.946404 97.8380 212.750 119.0000 M 39.414 64.93529 L 37.996 63.866541 M 96.750 65.0000000 L 86.2500 122.0000 M 225.17593 111.7901 L 218.9537 96.6049383 M 32.19013 66.824058 L 31.175 66.6941 M 109.3432 37.408546 L 109.121610 36.7884476 M 177.7500 129.00000 L 177.750000 129.00000 M 118.95098 41.00000 L 118.951 97.205882 M 194.064815 72.3086 L 175.3981 63.1975309 M 41.8842 67.48391 L 40.7180 66.150871 M 196.649 73.107843 L 184.0671 40.7990196 M 38.82157 91.3176471 C 44.022 86.88235 46.3157 78.31765 44.327 71.894118 M 118.950980 104.0882353 L 118.9510 119.0000 M 73.490 73.0686275 L 73.63039 31.0098 M 28.4386 94.9882353 L 30.88548 94.5934431 M 48.500 64.00000 L 199.250 58.00000 M 112.069 119.0000000 L 112.0686 41.0000000 M 171.5500 107.2400 L 168.06250 103.50000 M 43.712 70.384894 L 42.890 68.90504 M 163.800000 100.44000 L 158.7625 98.0600000 M 106.5055 31.880235 L 106.41381 31.765699 M 10.8333 94.98824 L 10.8333 94.9882 M 62.275 28.20588 C 65.730 27.93627 64.73039 27.9362745 69.284 28.20588 M 33.209239 94.048565 L 35.3478 93.334024 M 34.92157 68.4721 L 34.07800 67.7507 M 159.0000 39.00000 Q 159.000000 97.500000 225.0000 97.5000000 M 118.95098 104.0882 L 118.9510 119.0000000 M 175.39815 63.1975309 L 152.58333 56.1111111 M 227.250000 129.0000000 L 225.175926 111.79012 M 109.12161 36.7884476 L 108.863378 36.121919 M 106.13094 31.43133 L 106.034020 31.3232 M 109.9412 39.4216 C 109.94118 39.421569 109.3087 36.6808 107.89448 34.0353926 M 108.5678 35.4220 L 108.23417 34.701894 M 109.52877 37.969133 L 109.34318 37.4085 M 243.5266 121.1569 C 244.3556 122.017031 245.3556 125.2961873 245.4622 126.12745 M 174.000000 49.00000 L 267.00000 130.0000 M 168.0625 103.500000 L 163.8000 100.4400 M 105.8362 31.1123650 L 105.735294 31.009804 M 269.20793 121.15686 L 260.923612 121.1569 M 112.06863 41.0000 L 118.9510 41.0000000 M 80.500 73.0686275 C 73.708 72.7766 77.70792 73.3607026 73.490 73.0686275 M 224.472631 121.1569 C 223.088725 122.06814 222.91127 120.2455882 215.359886 121.15686 M 116.951 77.2745098 C 109.826 72.9300 114.826 75.92999 109.941176 73.068627 M 98.725 77.2745098 C 101.3715 76.646045 108.62847 77.9029750 116.951 77.2745 M 158.7625 98.060000 L 152.950000 96.3600000 M 69.2843 73.0686 L 62.2745 73.0686 M 34.078002 67.7506664 L 33.163 67.188787 M 25.93046 95.252518 L 28.43856 94.988235 M 190.921569 35.00000 C 167.51777 34.48223 184.51777 35.5178 166.06863 35.000000 M 37.23927 92.4302431 L 38.82157 91.3176 M 174.262 111.6600 L 171.5500 107.240000 M 209.9755 35.00000 L 212.234 40.7990196 M 105.73529 31.009804 C 101.529412 26.8039216 98.445 26.102941 88.912 25.40196 M 44.3275 71.89412 L 44.3275 71.8941 M 199.620 121.1569 L 201.5553 126.1275 M 260.923612 121.156863 L 229.6308 40.7990 M 227.25000 129.0000 L 227.250000 129.00000 M 36.87874 71.21693 L 36.336275 70.2428 M 37.99569 63.86654 L 36.4854 62.9739765 M 222.175 40.799020 L 234.757 73.107843 M 160.24510 119.000000 L 152.2157 119.000000 M 106.4138 31.7656990 L 106.3208 31.65265 M 267.000000 130.000000 L 96.750000 65.0000000 M 100.6882 33.3931373 C 102.44685 34.9005 105.10589 38.546395 105.6399 39.288400 M 168.327 40.7990196 C 170.732 40.5309977 172.731978 41.06704 177.43962 40.7990196 M 212.75000 119.0000000 L 233.00000 98.0000 M 146.0000 87.0000 L 51.500000 114.00000 M 226.40827 126.127451 C 225.733291 125.3457513 225.2667 122.77782 224.47263 121.1569 M 34.922 68.4720588 L 33.16275 67.1888 M 234.757 73.10784 L 196.6487 73.10784 M 107.862 33.97456 L 107.450 33.25312 M 106.32084 31.65265 L 106.2265 31.541175 M 22.537610 66.439850 C 18.9657 69.584419 16.186275 73.11765 16.186275 73.1176 M 208.73244 121.156863 C 200.5858 120.742647 200.58578 120.7426471 199.61969 121.156863 M 105.735 39.42157 L 105.735294 73.0686275 M 40.718039 66.150871 L 39.41422 64.9353 M 36.33627 70.2428 L 34.92157 68.472059 M 106.505480 31.880235 L 106.505 31.8802352 M 16.18627 73.1176 L 23.0686 28.61176 " id="captcha"></path>
  </g>
</svg>
